<svg xmlns="http://www.w3.org/2000/svg" width="980" height="650" viewBox="0 0 980 650"><rect width="980" height="650" fill="#060b18"/><rect x="24" y="20" width="932" height="610" rx="18" fill="#0b1223" stroke="#263354"/><rect x="24" y="20" width="932" height="64" rx="18" fill="#0e172b"/><circle cx="58" cy="52" r="18" fill="#f6c744"/><text x="88" y="58" fill="#fff" font-family="Arial" font-size="17" font-weight="800">BD POWER STRIKERS</text><text x="55" y="130" fill="#f6c744" font-family="Arial" font-size="30" font-weight="900">BDPSC OFFICIAL SQUAD</text><text x="55" y="160" fill="#9aa7c1" font-family="Arial" font-size="15">Search • filter • player cards • profile • digital card</text><g fill="#111a31" stroke="#263354"><rect x="55" y="195" width="195" height="150" rx="12"/><rect x="270" y="195" width="195" height="150" rx="12"/><rect x="485" y="195" width="195" height="150" rx="12"/><rect x="700" y="195" width="225" height="150" rx="12"/><rect x="55" y="365" width="195" height="150" rx="12"/><rect x="270" y="365" width="195" height="150" rx="12"/><rect x="485" y="365" width="195" height="150" rx="12"/><rect x="700" y="365" width="225" height="150" rx="12"/></g><g fill="#f6c744" font-family="Arial" font-size="12" font-weight="700"><text x="75" y="225">OVR 88 • CF</text><text x="290" y="225">OVR 86 • AMF</text><text x="505" y="225">OVR 84 • CB</text><text x="720" y="225">OVR 82 • GK</text><text x="75" y="395">OVR 81 • LWF</text><text x="290" y="395">OVR 80 • CMF</text><text x="505" y="395">OVR 79 • RB</text><text x="720" y="395">OVR 78 • SS</text></g><g fill="#fff" font-family="Arial" font-size="18" font-weight="800"><text x="75" y="270">PLAYER PROFILE</text><text x="290" y="270">PLAYER PROFILE</text><text x="505" y="270">PLAYER PROFILE</text><text x="720" y="270">PLAYER PROFILE</text><text x="75" y="440">PLAYER PROFILE</text><text x="290" y="440">PLAYER PROFILE</text><text x="505" y="440">PLAYER PROFILE</text><text x="720" y="440">PLAYER PROFILE</text></g><text x="55" y="590" fill="#697795" font-family="Arial" font-size="11">REFERENCE UI PREVIEW • supplied players screenshot represented as a lightweight repository asset</text></svg>